<?xml version="1.0" encoding="iso-8859-1"?>
<!-- Generator: Adobe Illustrator 19.1.0, SVG Export Plug-In . SVG Version: 6.00 Build 0)  -->
<!DOCTYPE svg PUBLIC "-//W3C//DTD SVG 1.1//EN" "http://www.w3.org/Graphics/SVG/1.1/DTD/svg11.dtd">
<svg version="1.1" xmlns="http://www.w3.org/2000/svg" xmlns:xlink="http://www.w3.org/1999/xlink" x="0px" y="0px"
	 viewBox="-334 136 290 290" style="enable-background:new -334 136 290 290;" xml:space="preserve">
<g id="svg2" xmlns:ns1="http://sozi.baierouge.fr" xmlns:svg="http://www.w3.org/2000/svg" xmlns:dc="http://purl.org/dc/elements/1.1/" xmlns:inkscape="http://www.inkscape.org/namespaces/inkscape" xmlns:sodipodi="http://sodipodi.sourceforge.net/DTD/sodipodi-0.dtd" xmlns:rdf="http://www.w3.org/1999/02/22-rdf-syntax-ns#" xmlns:cc="http://creativecommons.org/ns#">
	
		<radialGradient id="path3984-7_1_" cx="-260.333" cy="302.6082" r="101.398" gradientTransform="matrix(1 0 0 1.3508 0 -136.0611)" gradientUnits="userSpaceOnUse">
		<stop  offset="0" style="stop-color:#FFD73B"/>
		<stop  offset="1" style="stop-color:#EE8400"/>
	</radialGradient>
	<path id="path3984-7" style="fill:url(#path3984-7_1_);" d="M-229.161,176.565c-31.839,0.025-52.455,22.114-68.555,71.576
		c-7.991,24.543-12.545,68.806-6.281,101.69c11.277,59.203,50.657,68.717,69.357,62.503c39.683,13.333,75.12-0.136,75.12-0.136
		s33.063,10.941,51.853-14.413c18.85-25.434,25.01-56.578,24.67-94.557C-83.79,214.8-121.667,159.19-168.285,187.5
		c-4.333-4.923-22.049-8.935-39.549-3C-209.833,179.787-222.259,176.559-229.161,176.565z"/>
	
		<linearGradient id="path3988-6_1_" gradientUnits="userSpaceOnUse" x1="-608.804" y1="517.787" x2="-589.6761" y2="509.2587" gradientTransform="matrix(6.4001 0 0 -6.4001 3590.1069 3574.5254)">
		<stop  offset="0" style="stop-color:#FFD73B"/>
		<stop  offset="1" style="stop-color:#EE8400"/>
	</linearGradient>
	<path id="path3988-6" style="fill:url(#path3988-6_1_);" d="M-248.667,391.017c-8.985-22-47.203-130.267,27.417-197.146
		C-286.682,257.5-260.402,359.517-248.667,391.017z"/>
	
		<linearGradient id="path3992_2_" gradientUnits="userSpaceOnUse" x1="-179.3106" y1="-390.5051" x2="-213.6095" y2="-355.6044" gradientTransform="matrix(1 0 0 -1 19.64 -221.161)">
		<stop  offset="0" style="stop-color:#5F6B21"/>
		<stop  offset="1" style="stop-color:#39A905"/>
	</linearGradient>
	<path id="path3992" style="fill:url(#path3992_2_);" d="M-171.103,183.807c1.876-25.606,3.038-33.501,6.083-44.624
		c3.242-3.427,6.447,0.562,6.417,2.895c-5.608,17.618-4.535,23.213-9.066,45.467c-1.559,1.268-2.33,1.226-3.434,0.2V183.807z"/>
	
		<linearGradient id="path3996-0_1_" gradientUnits="userSpaceOnUse" x1="-601.8972" y1="505.465" x2="-573.9918" y2="516.6842" gradientTransform="matrix(6.4001 0 0 -6.4001 3590.1069 3574.5254)">
		<stop  offset="0" style="stop-color:#FFD73B"/>
		<stop  offset="1" style="stop-color:#EE8400"/>
	</linearGradient>
	<path id="path3996-0" style="fill:url(#path3996-0_1_);" d="M-154,198.951c21.5,13.799,29.5,140.049,5.25,192.066
		C-116.25,339-131.5,205.25-154,198.951z"/>
	
		<linearGradient id="SVGID_1_" gradientUnits="userSpaceOnUse" x1="-220.845" y1="275.1908" x2="-252.3451" y2="237.4752" gradientTransform="matrix(0.998 -0.0626 0.0626 0.998 -16.3729 -14.7719)">
		<stop  offset="0" style="stop-color:#999999"/>
		<stop  offset="1" style="stop-color:#DBDBDB"/>
	</linearGradient>
	<path style="fill:url(#SVGID_1_);" d="M-256.872,265.059l21.023-37.216c0.817-1.446,2.912-1.543,3.857-0.18l23.841,34.401
		c0.977,1.41,0.008,3.325-1.738,3.435l-44.864,2.815C-256.533,268.426-257.733,266.582-256.872,265.059z"/>
	<path style="fill:#FFFFFF;" d="M-246.874,260.33l11.909-22.993c0.463-0.893,1.66-0.947,2.205-0.1l13.735,21.384
		c0.563,0.876,0.014,2.06-0.984,2.123l-25.644,1.609C-246.67,262.416-247.362,261.271-246.874,260.33z"/>
	<g id="g5490" transform="matrix(.22023 .92811 -.92811 .22023 672.22 1021.8)">
		
			<linearGradient id="path5492_1_" gradientUnits="userSpaceOnUse" x1="-733.3907" y1="147.8897" x2="-737.6635" y2="151.2157" gradientTransform="matrix(0.1617 -0.9401 -0.9401 -0.1617 -730.5341 55.3085)">
			<stop  offset="0" style="stop-color:#999999"/>
			<stop  offset="1" style="stop-color:#DBDBDB"/>
		</linearGradient>
		<path id="path5492" style="fill:url(#path5492_1_);" d="M-986.713,719.513c0.107,1.706-1.189,3.175-2.895,3.282
			c-1.706,0.107-3.175-1.189-3.282-2.895c-0.107-1.706,1.189-3.175,2.895-3.282C-988.289,716.511-986.82,717.807-986.713,719.513z"
			/>
		
			<linearGradient id="path5494_1_" gradientUnits="userSpaceOnUse" x1="-731.0637" y1="395.7454" x2="-729.6076" y2="395.7613" gradientTransform="matrix(0.6723 -0.6767 -0.6767 -0.6723 -231.31 490.5591)">
			<stop  offset="0" style="stop-color:#999999"/>
			<stop  offset="1" style="stop-color:#DBDBDB"/>
		</linearGradient>
		<path id="path5494" style="fill:url(#path5494_1_);" d="M-988.182,717.062c-0.245-0.15-0.502-0.247-0.765-0.322l-3.102,5.069
			c0.187,0.2,0.39,0.385,0.635,0.534c0.245,0.15,0.523,0.26,0.786,0.335l3.102-5.069
			C-987.712,717.409-987.937,717.212-988.182,717.062L-988.182,717.062z"/>
	</g>
	<g id="g5500" transform="matrix(.88081 .36616 -.36616 .88081 264.64 218.11)">
		
			<linearGradient id="path5502_1_" gradientUnits="userSpaceOnUse" x1="230.4218" y1="-248.5901" x2="226.149" y2="-245.2642" gradientTransform="matrix(0.8562 -0.4206 -0.4206 -0.8562 -776.751 99.7194)">
			<stop  offset="0" style="stop-color:#999999"/>
			<stop  offset="1" style="stop-color:#DBDBDB"/>
		</linearGradient>
		<path id="path5502" style="fill:url(#path5502_1_);" d="M-473.496,214.304c0.107,1.706-1.189,3.175-2.895,3.282
			c-1.706,0.107-3.175-1.189-3.282-2.895s1.189-3.175,2.895-3.282C-475.072,211.302-473.603,212.598-473.496,214.304z"/>
		
			<linearGradient id="path5504_1_" gradientUnits="userSpaceOnUse" x1="223.8688" y1="-0.9455" x2="225.3249" y2="-0.9296" gradientTransform="matrix(0.9424 0.1474 0.1474 -0.9424 -688.2101 180.1329)">
			<stop  offset="0" style="stop-color:#999999"/>
			<stop  offset="1" style="stop-color:#DBDBDB"/>
		</linearGradient>
		<path id="path5504" style="fill:url(#path5504_1_);" d="M-474.965,211.853c-0.245-0.15-0.502-0.247-0.765-0.322l-3.102,5.069
			c0.187,0.2,0.39,0.385,0.635,0.534c0.245,0.15,0.523,0.26,0.786,0.335l3.102-5.069
			C-474.496,212.2-474.721,212.003-474.965,211.853L-474.965,211.853z"/>
	</g>
	
		<linearGradient id="path3992_3_" gradientUnits="userSpaceOnUse" x1="-183.1064" y1="-388.6172" x2="-217.4053" y2="-353.7165" gradientTransform="matrix(-0.8168 0 0 -1 -364.1167 -221.161)">
		<stop  offset="0" style="stop-color:#5F6B21"/>
		<stop  offset="1" style="stop-color:#39A905"/>
	</linearGradient>
	<path id="path3992_1_" style="fill:url(#path3992_3_);" d="M-205.211,181.919c-1.532-25.606-2.482-33.501-4.969-44.624
		c-2.648-3.427-5.266,0.562-5.242,2.895c4.581,17.618,3.704,23.213,7.405,45.467c1.274,1.268,1.903,1.226,2.805,0.2V181.919z"/>
	<g id="g5480" transform="translate(10.236 61.334)">
		
			<linearGradient id="path5482_1_" gradientUnits="userSpaceOnUse" x1="423.8102" y1="-105.2505" x2="419.5374" y2="-101.9245" gradientTransform="matrix(0.998 -0.0626 -0.0626 -0.998 -690.0843 125.3369)">
			<stop  offset="0" style="stop-color:#999999"/>
			<stop  offset="1" style="stop-color:#DBDBDB"/>
		</linearGradient>
		<path id="path5482" style="fill:url(#path5482_1_);" d="M-259.093,202.51c0.107,1.706-1.189,3.175-2.895,3.282
			c-1.706,0.107-3.175-1.189-3.282-2.895s1.189-3.175,2.895-3.282C-260.669,199.508-259.2,200.804-259.093,202.51z"/>
		
			<linearGradient id="path5484_1_" gradientUnits="userSpaceOnUse" x1="423.1469" y1="62.044" x2="424.6031" y2="62.0599" gradientTransform="matrix(0.853 0.5219 0.5219 -0.853 -656.2852 34.2941)">
			<stop  offset="0" style="stop-color:#999999"/>
			<stop  offset="1" style="stop-color:#DBDBDB"/>
		</linearGradient>
		<path id="path5484" style="fill:url(#path5484_1_);" d="M-260.562,200.059c-0.245-0.15-0.502-0.247-0.765-0.322l-3.102,5.069
			c0.187,0.2,0.39,0.385,0.635,0.534c0.245,0.15,0.523,0.26,0.786,0.335l3.102-5.069
			C-260.092,200.406-260.317,200.209-260.562,200.059L-260.562,200.059z"/>
	</g>
	
		<linearGradient id="SVGID_2_" gradientUnits="userSpaceOnUse" x1="-146.9091" y1="284.0298" x2="-185.8866" y2="237.3615" gradientTransform="matrix(0.9971 0.0763 -0.0763 0.9971 19.1251 12.4429)">
		<stop  offset="0" style="stop-color:#999999"/>
		<stop  offset="1" style="stop-color:#DBDBDB"/>
	</linearGradient>
	<path style="fill:url(#SVGID_2_);" d="M-193.266,267.446l32.142-42.002c1.249-1.632,3.833-1.392,4.758,0.441l23.318,46.244
		c0.956,1.895-0.561,4.076-2.719,3.911l-55.46-4.241C-193.428,271.63-194.582,269.165-193.266,267.446z"/>
	<path style="fill:#FFFFFF;" d="M-179.208,263.419l18.491-25.553c0.718-0.993,2.195-0.854,2.719,0.255l13.21,27.978
		c0.541,1.147-0.331,2.473-1.565,2.379l-31.701-2.424C-179.311,265.956-179.965,264.465-179.208,263.419z"/>
	<g id="g5452" transform="matrix(.86893 -.49494 .49494 .86893 -475.33 24.643)">
		
			<linearGradient id="path5437_1_" gradientUnits="userSpaceOnUse" x1="899.9614" y1="198.6116" x2="895.6885" y2="201.9376" gradientTransform="matrix(0.8689 0.4949 0.4949 -0.8689 -708.742 109.2042)">
			<stop  offset="0" style="stop-color:#999999"/>
			<stop  offset="1" style="stop-color:#DBDBDB"/>
		</linearGradient>
		<path id="path5437" style="fill:url(#path5437_1_);" d="M173.065,380.812c0,1.709-1.385,3.094-3.094,3.094
			s-3.094-1.385-3.094-3.094c0-1.709,1.385-3.094,3.094-3.094S173.065,379.103,173.065,380.812z"/>
		
			<linearGradient id="path5441_1_" gradientUnits="userSpaceOnUse" x1="913.0422" y1="422.0178" x2="914.4983" y2="422.0337" gradientTransform="matrix(0.4271 0.9042 0.9042 -0.4271 -602.3087 -265.0734)">
			<stop  offset="0" style="stop-color:#999999"/>
			<stop  offset="1" style="stop-color:#DBDBDB"/>
		</linearGradient>
		<path id="path5441" style="fill:url(#path5441_1_);" d="M171.752,378.274c-0.235-0.165-0.485-0.278-0.743-0.369l-3.413,4.865
			c0.174,0.211,0.366,0.408,0.6,0.573c0.235,0.165,0.506,0.292,0.763,0.384l3.413-4.865
			C172.199,378.65,171.987,378.439,171.752,378.274L171.752,378.274z"/>
	</g>
	<g id="g5460" transform="matrix(.86022 .50993 -.50993 .86022 463.64 290.72)">
		
			<linearGradient id="path5462_1_" gradientUnits="userSpaceOnUse" x1="-12.3903" y1="-151.5403" x2="-16.6631" y2="-148.2144" gradientTransform="matrix(0.8602 -0.5099 -0.5099 -0.8602 -630.6782 131.3308)">
			<stop  offset="0" style="stop-color:#999999"/>
			<stop  offset="1" style="stop-color:#DBDBDB"/>
		</linearGradient>
		<path id="path5462" style="fill:url(#path5462_1_);" d="M-562.559,266.768c0,1.709-1.385,3.094-3.094,3.094
			s-3.094-1.385-3.094-3.094s1.385-3.094,3.094-3.094S-562.559,265.059-562.559,266.768z"/>
		
			<linearGradient id="path5464_1_" gradientUnits="userSpaceOnUse" x1="-30.5981" y1="76.2281" x2="-29.142" y2="76.244" gradientTransform="matrix(0.9971 0.0766 0.0766 -0.9971 -541.7393 344.5928)">
			<stop  offset="0" style="stop-color:#999999"/>
			<stop  offset="1" style="stop-color:#DBDBDB"/>
		</linearGradient>
		<path id="path5464" style="fill:url(#path5464_1_);" d="M-563.872,264.23c-0.235-0.165-0.485-0.278-0.743-0.369l-3.413,4.865
			c0.174,0.211,0.365,0.408,0.6,0.573c0.235,0.165,0.506,0.292,0.763,0.384l3.413-4.865
			C-563.425,264.606-563.637,264.394-563.872,264.23L-563.872,264.23z"/>
	</g>
	<g id="g5470" transform="matrix(.92889 -.37036 .37036 .92889 -332.4 28.357)">
		
			<linearGradient id="path5472_1_" gradientUnits="userSpaceOnUse" x1="755.9624" y1="98.6479" x2="751.6896" y2="101.9738" gradientTransform="matrix(0.9289 0.3704 0.3704 -0.9289 -689.596 88.776)">
			<stop  offset="0" style="stop-color:#999999"/>
			<stop  offset="1" style="stop-color:#DBDBDB"/>
		</linearGradient>
		<path id="path5472" style="fill:url(#path5472_1_);" d="M50.648,275.882c0,1.709-1.385,3.094-3.094,3.094
			c-1.709,0-3.094-1.385-3.094-3.094c0-1.709,1.385-3.094,3.094-3.094C49.262,272.788,50.648,274.173,50.648,275.882z"/>
		
			<linearGradient id="path5474_1_" gradientUnits="userSpaceOnUse" x1="758.0743" y1="285.1255" x2="759.5305" y2="285.1414" gradientTransform="matrix(0.5477 0.8367 0.8367 -0.5477 -606.9543 -202.739)">
			<stop  offset="0" style="stop-color:#999999"/>
			<stop  offset="1" style="stop-color:#DBDBDB"/>
		</linearGradient>
		<path id="path5474" style="fill:url(#path5474_1_);" d="M49.335,273.344c-0.235-0.165-0.485-0.278-0.743-0.369l-3.413,4.865
			c0.174,0.211,0.366,0.408,0.6,0.573c0.235,0.165,0.506,0.292,0.763,0.384l3.413-4.865C49.782,273.72,49.57,273.509,49.335,273.344
			L49.335,273.344z"/>
	</g>
	<path style="fill:#FFFFFF;" d="M-258.718,387.906l4-30.367l-13.783-32.177l26.236,18.974l10.066-22.05l19.707,21.367l18.855-26.152
		l20.559,25.126l22.14-20.683l5.839,23.759l16.983-14.316l-6.566,30.455l3.146,34.608l-18.672-22.215l-11.922,22.215l-23.815-22.683
		l-12.364,20.291l-19.676-19.266c0,0-5.486,15.848-6.2,16.873s-21.813-19.607-21.813-19.607L-258.718,387.906z"/>
	<linearGradient id="SVGID_3_" gradientUnits="userSpaceOnUse" x1="-204.8926" y1="294.9844" x2="-182.7523" y2="294.9844">
		<stop  offset="0" style="stop-color:#999999"/>
		<stop  offset="1" style="stop-color:#DBDBDB"/>
	</linearGradient>
	<circle style="fill:url(#SVGID_3_);" cx="-193.822" cy="294.984" r="11.07"/>
	<circle style="fill:#FFFFFF;" cx="-193.822" cy="294.984" r="7.354"/>
	<linearGradient id="SVGID_4_" gradientUnits="userSpaceOnUse" x1="-260.4999" y1="376.9941" x2="-131.5351" y2="376.9941">
		<stop  offset="0" style="stop-color:#704608"/>
		<stop  offset="1" style="stop-color:#AB8855"/>
	</linearGradient>
	<path style="fill:url(#SVGID_4_);" d="M-131.833,389.101l-18.672-19.215l-12.922,19.215l-23.815-22.683l-12.364,20.291
		l-19.676-19.266c0,0-5.486,15.848-6.2,16.873c-0.715,1.025-21.813-19.607-21.813-19.607l-10.51,16.268l2.765-17.643l0.322-5.795
		l-5.783,33.479l14.503-18.96c0,0,21.098,20.633,21.813,19.607c0.715-1.025,6.2-16.873,6.2-16.873l19.676,19.266l12.364-20.291
		l23.815,22.683l11.922-22.215l18.672,22.215L-131.833,389.101z"/>
</g>
<g id="Layer_2">
</g>
<g id="Layer_3">
</g>
</svg>
