<?xml version="1.0" encoding="utf-8"?>
<!-- Generator: Adobe Illustrator 19.1.0, SVG Export Plug-In . SVG Version: 6.00 Build 0)  -->
<!DOCTYPE svg PUBLIC "-//W3C//DTD SVG 1.1//EN" "http://www.w3.org/Graphics/SVG/1.1/DTD/svg11.dtd">
<svg version="1.1" id="Layer_1" xmlns="http://www.w3.org/2000/svg" xmlns:xlink="http://www.w3.org/1999/xlink" x="0px" y="0px"
	 viewBox="0 0 346.911 474.139" enable-background="new 0 0 346.911 474.139" xml:space="preserve">
<g>
	<path fill="#F6921E" d="M123.532,71.565c0,0-51.876-19.714-66.709,19.982c0,0-81.147-7.861-34.828,243.77
		c0,0,36.406,103.381,105.276,86.453c0,0,61.869,20.034,94.204-9.179c0,0,86.777,38.528,114.795-127.558
		c0,0,25.456-214.124-88.995-210.927c0,0-27.585-31.168-60.652-15.834c0,0-2.05-38.438-13.427-46.159l-23.709,3.921
		c0,0,2.699,31.952-5.786,41.157C143.702,57.192,126.005,61.738,123.532,71.565z"/>
	<path fill="#8BC53F" d="M186.623,58.273c0,0-2.05-38.438-13.427-46.159l-23.709,3.921c0,0,2.699,31.952-5.786,41.157
		C143.702,57.192,167.612,44.19,186.623,58.273z"/>
	<g>
		<g>
			<path fill="#C77816" d="M56.823,91.547c0,0-48.942,173.351,30.414,327.267C87.237,418.814-4.86,273.49,56.823,91.547z"/>
			<path fill="#C77816" d="M123.532,71.565c0,0-77.09,64.359,3.739,350.206C127.272,421.771,34.034,176.366,123.532,71.565z"/>
			<path fill="#C77816" d="M247.276,74.107c0,0,82.226,222.181-25.799,338.484C221.476,412.592,342.505,324.447,247.276,74.107z"/>
			<path fill="#C77816" d="M186.623,58.273c0,0,73.98,133.087,21.27,359.724C207.894,417.997,278.676,227.003,186.623,58.273z"/>
			<path fill="#C77816" d="M269.759,77.275c0,0,95.85,177.287-8.786,335.384C260.973,412.66,377.479,286.454,269.759,77.275z"/>
		</g>
		<path fill="#2A2B2A" stroke="#F9D940" stroke-width="5" stroke-miterlimit="10" d="M234.592,211.421h-12.338c-6.6,0-12-5.4-12-12
			v-12.515c0-6.6,5.4-12,12-12h12.338c6.6,0,12,5.4,12,12v12.515C246.592,206.021,241.192,211.421,234.592,211.421z"/>
		<path fill="#2A2B2A" stroke="#F9D940" stroke-width="5" stroke-miterlimit="10" d="M122.331,211.421h-16.502c-6.6,0-12-5.4-12-12
			v-17.416c0-6.6,5.4-12,12-12h16.502c6.6,0,12,5.4,12,12v17.416C134.331,206.021,128.931,211.421,122.331,211.421z"/>
	</g>
	<g>
		<polygon fill="#2A2B2A" points="173.859,211.421 153.306,255.836 201.783,248.996 		"/>
		<polygon fill="#F9D940" points="156.502,248.924 153.306,255.836 201.783,248.996 197.44,243.146 		"/>
		<polygon fill="#F9D940" points="173.859,211.421 153.306,255.836 156.502,248.924 161.81,248.182 174.371,221.033 
			191.438,243.994 197.44,243.146 		"/>
	</g>
	<g>
		<path fill="#2A2B2A" d="M273.525,373.886c0,0-28.221-19.843-48.62-26.673l7.945-12.654l-21.229-9.905l-9.398,14.476
			c0,0-27.891-6.579-51.699,0.864l-4.134-16.236l-18.55,8.151l0.246,10.17c0,0-17.24-0.306-45.917,22.344
			c0,0-1.298-22.518,9.655-34.39l9.098,4.111l8.781-8.699l-9.09-4.12c0,0,27.18-23.04,67.524-28.385l1.073,13.682l26.246,0.439
			l1.2-12.431c0,0,36.878,6.276,61.582,35.974l-11.17,3.032l6.991,10.381l11.954-1.73
			C266.013,342.285,274.744,362.34,273.525,373.886z"/>
		<path fill="#F9D940" d="M82.17,364.422c0.173-0.141,0.345-0.269,0.531-0.413c0.911-6.861,3.631-20.228,11.5-28.752l6.817,2.866
			l13.691-12.988l-7.362-4.041c0,0,16.046-18.682,56.387-24.026l1.08,13.683l35.234,0.135l1.226-11.104
			c0,0,20.818,1.216,51.288,29.732l-10.023,2.94l9.341,14.29l11.952-1.732c0,0,8.517,16.488,9.736,28.319
			c0.897-11.62-7.555-31.048-7.555-31.048l-11.954,1.73l-6.991-10.381l11.17-3.032c-24.704-29.699-61.582-35.974-61.582-35.974
			l-1.2,12.431l-26.246-0.439l-1.073-13.682c-40.344,5.346-67.524,28.385-67.524,28.385l9.09,4.12l-8.781,8.699l-9.098-4.111
			C80.871,341.904,82.17,364.422,82.17,364.422z"/>
		<path fill="#F9D940" d="M82.17,364.422c28.677-22.65,45.917-22.344,45.917-22.344l-0.246-10.17l18.55-8.151l4.134,16.236
			c23.808-7.443,51.699-0.864,51.699-0.864l9.398-14.476l21.229,9.905l-7.945,12.654c20.399,6.83,48.62,26.673,48.62,26.673
			c0.168-1.611,0.142-3.392-0.027-5.254c-8.46-5.789-27.334-18.02-42.998-23.35l8.121-13.153l-28.531-12.725l-9.611,15.037
			c0,0-21.808-7.08-46.175,0.645l-4.241-16.875l-25.685,10.013l0.253,10.569c0,0-13.153-0.482-42.503,23.046
			c0,0-0.002-0.073-0.011-0.182C82.111,363.389,82.17,364.422,82.17,364.422z"/>
	</g>
	<g>
		<path fill="#FFF100" d="M185.942,63.806c0,0,50.892-18.773,67.724,35.775C253.666,99.581,236.153,55.964,185.942,63.806z"/>
		<path fill="#FFF100" d="M260.352,82.748c0,0,53.533,6.882,63.886,82.337C324.238,165.085,305.424,97.072,260.352,82.748z"/>
		<path fill="#FFF100" d="M158.28,67.237c0,0-35.13-17.794-36.985,42.238C121.295,109.475,126.473,64.16,158.28,67.237z"/>
		<path fill="#FFF100" d="M107.999,73.719c0,0-51.513-16.569-49.979,59.542C58.02,133.261,63.589,71.588,107.999,73.719z"/>
		<path fill="#FFF100" d="M47.308,98.669c0,0-39.01,4.275-33.832,125.019C13.476,223.688,12.951,118.93,47.308,98.669z"/>
	</g>
</g>
</svg>
