<?xml version="1.0" encoding="utf-8"?>
<!-- Generator: Adobe Illustrator 19.1.0, SVG Export Plug-In . SVG Version: 6.00 Build 0)  -->
<!DOCTYPE svg PUBLIC "-//W3C//DTD SVG 1.1//EN" "http://www.w3.org/Graphics/SVG/1.1/DTD/svg11.dtd">
<svg version="1.1" id="Layer_1" xmlns="http://www.w3.org/2000/svg" xmlns:xlink="http://www.w3.org/1999/xlink" x="0px" y="0px"
	 viewBox="0 0 346.911 474.139" enable-background="new 0 0 346.911 474.139" xml:space="preserve">
<g>
	<path fill="#F6921E" d="M119.921,59.568c0,0,13.501-17.761,40.503-17.761l-3.039-30.682L191,3.05v45.214
		c0,0,28.112-4.841,39.682,11.303c0.315,0.434,14.028,0.745,15.266,0.94c12.649,2.073,24.482,7.586,34.123,14.599
		c63.341,46.042,52.875,142.473,52.928,207.216c0.024,35.601,9.372,145.885-42.996,162.919c-3.817,1.239-18.468-0.511-19.669,0.3
		c-0.02,0.017-59.786,40.369-125.35,12.916c-4.905-2.051-31.188,5.752-40.013,4.268c-37.825-6.319-56.941-39.696-67.296-67.549
		c-24.39-65.571-24.464-146.408-21.833-215.113C17.897,126.39,33.312,44.875,119.921,59.568z"/>
	<g>
		<g>
			<path fill="#C77816" d="M119.921,59.568c0,0-86.542,184.248,25.08,398.889C145.001,458.457,13.11,293.788,119.921,59.568z"/>
			<path fill="#C77816" d="M231.789,59.568c0,0,74.754,150.593,38.579,385.974C270.368,445.542,330.263,243.728,231.789,59.568z"/>
			<path fill="#C77816" d="M193.214,48.265c0,0,67.144,225.972,26.04,418.367C219.254,466.632,273.663,241.471,193.214,48.265z"/>
			<path fill="#C77816" d="M231.789,59.568c0,0,138.443,95.275,58.282,385.674C290.072,445.242,395.648,196.818,231.789,59.568z"/>
			<path fill="#C77816" d="M107.163,58.39c0,0-128.908,164.236,11.208,405.108C118.371,463.498-42.292,272.681,107.163,58.39z"/>
		</g>
		<path fill="#F9D940" d="M265.798,308.576c14.63,0.844,23.896,4.013,29.78,7.547c12.21-35.45,13.036-75.986,7.573-107.89
			c-0.408-2.417-0.823-4.846-1.374-7.241c-2.111,9.109-5.811,17.478-10.777,25.097c4.434,48.343-21.354,66.349-21.354,66.349
			c2.24-13.749-4.623-27.125-10.77-35.933c-8.632,5.341-18.151,9.786-28.223,13.315l-7.262,38.757l-32.75-29.916
			c-4.932,0.517-9.884,0.845-14.845,0.962l-20.504,38.64l-14.514-41.302c-13.309-2.406-26.039-6.435-37.543-12.159
			c-4.487,12.698-4.49,25.48-4.49,25.48c-24.288-16.133-30.56-38.646-31.984-52.383c-8.629-8.075-16.883-17.411-16.843-23.991
			c-0.22,36.073,4.812,83.188,24.576,120.789c10.06-22.012,26.823-20.74,26.823-20.74c-1.308,19.64,14.414,51.166,27.881,74.224
			c2.768,1.234,5.639,2.373,8.603,3.401c6.229-11.681,16.325-29.059,29.046-45.348c0,0,1.633,29.382,20.514,52.205
			c7.464-0.25,14.49-1.028,21.131-2.284c14.298-24.841,16.183-59.608,16.183-59.608l24.373,43.47
			c6.193-4.113,11.812-8.797,16.88-13.988C276.946,338.28,265.798,308.576,265.798,308.576z"/>
		<path fill="#F9D940" d="M175.85,204.215c0,0-17.995,35.511-16.704,58.096l47.539,1.073
			C206.685,263.384,195.12,218.202,175.85,204.215z"/>
		<path fill="#F9D940" d="M103.545,189.56c-3.146,12.104-7.879,22.98-11.745,30.704c-24.513-16.2-18.373-74.963-9.535-91.124
			c0,0,55.265,63.248,55.653,63.693c2.957,3.39-12.628,21.835-15.263,24.125c-3.053,2.639-6.286,4.984-10.069,6.302L103.545,189.56z
			"/>
		<path fill="#F9D940" d="M229.818,186.998c5.267,11.587,11.878,21.735,17.078,28.893c21.36-19.073,4.819-76.402-6.8-91.285
			c0,0-43.385,69.444-43.687,69.933c-2.323,3.707,16.372,20.012,19.389,21.941c3.488,2.228,7.099,4.14,11.074,4.985L229.818,186.998
			z"/>
		<g>
			<path fill="#2A2B2A" d="M239.357,132.742c0,0-25.483,35.912-36.395,51.306c-2.121,3.384-3.85,6.157-5.002,7.997
				c1.102,4.402,15.857,15.683,18.436,17.139c3.299,1.856,6.721,3.445,10.471,4.14l2.778-28.67
				c4.978,9.637,11.221,18.083,16.136,24.035C265.957,192.828,250.339,145.118,239.357,132.742z"/>
			<polygon fill="#2A2B2A" points="170.709,154.721 180.984,185.925 249.094,99.859 			"/>
			<path fill="#2A2B2A" d="M84.448,137.093c0,0,31.586,32.338,45.13,46.193c2.688,3.079,4.892,5.613,6.362,7.286
				c-0.305,4.49-12.884,17.477-15.18,19.245c-2.923,2.239-6.027,4.24-9.614,5.402l-7.856-28.003
				c-3.203,10.142-7.876,19.278-11.673,25.786C68.843,199.83,75.796,150.703,84.448,137.093z"/>
			<polygon fill="#2A2B2A" points="156.245,150.264 151.636,182.402 68.963,105.805 			"/>
			<path fill="#2A2B2A" d="M177.254,208.605c0,0-14.391,30.238-13.366,49.482l38.037,0.912
				C201.926,258.999,192.673,220.52,177.254,208.605z"/>
			<path fill="#2A2B2A" d="M296.175,222.976c-0.275-1.428-0.57-2.873-0.892-4.307c-0.744,1.467-1.523,2.906-2.36,4.329
				c-0.557,1.456-1.171,2.879-1.835,4.279c3.906,47.432-21.44,65.16-21.44,65.16c0.192-1.178,0.299-2.345,0.365-3.501
				c-3.113,3.212-5.466,4.674-5.466,4.674c2.118-11.532-4.364-22.757-10.169-30.137c-7.537,4.135-15.784,7.63-24.496,10.475
				l-6.488,34.628l-2.373-2.168l-0.156,0.739l-30.922-25.091c-4.66,0.434-9.333,0.701-14.013,0.806l-16.568,27.72l-4.069,7.68
				l-13.275-37.79c-12.257-2.023-23.992-5.346-34.606-10.048c-4.235,10.659-4.235,21.379-4.235,21.379
				c-1.55-0.906-3.007-1.851-4.398-2.795c-0.033,0.817-0.033,1.272-0.033,1.272c-21.453-14.243-28.848-33.477-31.264-47.243
				c-5.792-5.402-10.372-10.971-10.405-15.211l-0.007-0.005c-0.192,29.537,4.345,67.883,21.931,99.02
				c3.913-5.468,8.218-8.641,12.001-10.453c7.52-5.201,14.599-4.74,14.599-4.74c-1.234,16.472,13.611,42.919,26.326,62.27
				c2.619,1.028,5.327,1.984,8.128,2.84c5.875-9.781,15.413-24.363,27.424-38.023c0,0,1.543,24.641,19.365,43.78
				c7.046-0.211,13.693-0.855,19.956-1.911c13.495-20.834,15.28-49.993,15.28-49.993l23.013,36.462
				c5.854-3.457,11.161-7.391,15.937-11.726c10.405-23.285-0.119-48.199-0.119-48.199c10.892,0.561,18.629,2.329,24.141,4.501
				c1.48,0.444,2.857,0.906,4.135,1.39C300.563,283.407,301.313,249.607,296.175,222.976z"/>
		</g>
		<polygon fill="#F9D940" points="234.843,109.829 183.576,174.083 175.93,151.065 170.709,154.721 180.984,185.925 249.094,99.859 
					"/>
		<polygon fill="#F9D940" points="84.83,113.88 146.966,171.004 150.424,147.308 156.245,150.264 151.636,182.402 68.963,105.805 		
			"/>
	</g>
	<g>
		<path fill="#FFF100" d="M115.221,68.449c0,0-61.412-25.014-79.662,52.806C35.559,121.255,52.153,58.724,115.221,68.449z"/>
		<path fill="#FFF100" d="M136.797,58.724c0,0,29.876-27.792,69.703,9.725C206.5,68.449,169.989,39.273,136.797,58.724z"/>
		<path fill="#FFF100" d="M231.398,69.838c0,0,59.746-9.731,78.003,72.257C309.401,142.095,294.463,79.558,231.398,69.838z"/>
	</g>
	<path fill="#8BC53F" d="M191,46.265V1.05l-33.615,9.171L160.424,42c-0.03,0-0.053,0-0.08,0C168.635,42,188,41.441,191,46.265z"/>
</g>
</svg>
