<?xml version="1.0" encoding="utf-8"?>
<!-- Generator: Adobe Illustrator 19.1.0, SVG Export Plug-In . SVG Version: 6.00 Build 0)  -->
<!DOCTYPE svg PUBLIC "-//W3C//DTD SVG 1.1//EN" "http://www.w3.org/Graphics/SVG/1.1/DTD/svg11.dtd">
<svg version="1.1" id="Layer_1" xmlns="http://www.w3.org/2000/svg" xmlns:xlink="http://www.w3.org/1999/xlink" x="0px" y="0px"
	 viewBox="0 0 346.911 474.139" enable-background="new 0 0 346.911 474.139" xml:space="preserve">
<g>
	<path fill="#F6921E" d="M119.185,63.423c0,0,13.567-17.494,40.715-17.494l-2.874-30.223L191,7.755v44.537
		c0,0,28.078-4.771,39.708,11.131c0.311,0.438,14.012,0.726,15.259,0.935c12.698,2.032,24.547,7.463,34.247,14.361
		c63.664,45.356,53.129,140.333,53.171,204.087c0.035,35.069,9.413,143.684-43.228,160.469c-3.833,1.232-18.571-0.507-19.777,0.294
		c-0.014,0.013-60.1,39.753-126.005,12.72c-4.922-2.026-31.352,5.659-40.218,4.202c-38.019-6.228-57.243-39.096-67.646-66.524
		C11.99,329.381,11.915,249.762,14.569,182.094C16.631,129.234,32.13,48.95,119.185,63.423z"/>
	<path fill="#8BC53F" d="M191,52.292V7.755l-33.974,7.951l1.479,30.223C158.506,45.929,185,46.667,191,52.292z"/>
	<g>
		<path fill="#C77816" d="M231.638,63.423c0,0,88.193,180.111,38.771,380.145C270.409,443.568,340.615,238.556,231.638,63.423z"/>
		<path fill="#C77816" d="M192.859,52.292c0,0,75.674,207.701,33.063,405.447C225.922,457.739,287.657,286.176,192.859,52.292z"/>
		<path fill="#C77816" d="M119.185,63.423c0,0-47.34,159.4,16.587,392.834C135.772,456.257,51.791,272.763,119.185,63.423z"/>
		<path fill="#C77816" d="M246.432,64.358c0,0,126.109,113.19,43.783,378.916C290.215,443.274,388.231,209.191,246.432,64.358z"/>
		<path fill="#C77816" d="M93.147,63.73c0,0-90.144,181.399,18.034,394.015C111.181,457.745-15.024,270.399,93.147,63.73z"/>
	</g>
	<g>
		<g>
			<path fill="#2A2B2A" d="M243.268,123.225l-7.969,51.954c0.083,0,0.172-0.013,0.248-0.013c8.783,0,15.905,3.702,15.905,8.248
				c0,4.565-7.121,8.248-15.905,8.248c-0.937,0-1.847-0.056-2.757-0.138l-4.06,26.527l55.44-14.02L243.268,123.225z"/>
			<polygon fill="#F9D940" points="243.268,123.225 241.179,136.869 274.262,202.236 229.411,213.568 228.729,218.052 
				284.169,204.031 			"/>
			<polygon fill="#2A2B2A" points="244.178,103.433 284.169,175.997 299.631,152.084 			"/>
			<polygon fill="#F9D940" points="244.178,103.433 250.713,115.277 293.682,152.979 281.701,171.52 284.169,175.997 
				299.631,152.084 			"/>
		</g>
		<g>
			<path fill="#2A2B2A" d="M128.126,121.692l18.159,55.355c-0.09,0.019-0.179,0.019-0.269,0.031
				c-9.562,1.326-16.635,6.41-15.801,11.362c0.82,4.965,9.252,7.904,18.814,6.585c1.027-0.144,2.013-0.325,2.971-0.551l9.258,28.253
				L98.345,215.8L128.126,121.692z"/>
			<polygon fill="#F9D940" points="98.345,215.8 161.258,222.729 159.708,217.964 108.81,212.348 132.897,136.225 128.126,121.692 
							"/>
			<polygon fill="#2A2B2A" points="123.535,100.281 93.237,185.271 72.045,161.571 			"/>
			<polygon fill="#FFF100" points="123.535,100.281 118.586,114.157 78.691,161.658 95.091,180.031 93.237,185.271 72.045,161.571 
							"/>
		</g>
		<g>
			<path fill="#2A2B2A" d="M207,338h34v37.682c15-3.202,19-8.18,36-14.446V318h30v14.226c28-47.939,11.762-114.994,11.762-115
				c2.006,8.091-7.793,26.48-11.006,34.134c-1.254,2.989-3.539,2.64-4.987,10.64H307v26h-22v-1.905
				c-8,7.329-16.178,13.795-25.058,18.892c-0.71,0.413,0.058,0.807-3.942,1.17V322h-20v-7.89c-9,1.858-20.878,2.658-31.025,3.927
				c-6.418,0.813-13.975,1.851-19.975,2.727V349h-24v-26.572c-3,0.044-14.062-0.763-21.473-3.077
				c-16.607-5.14-30.273-14.946-41.614-26.952c-9.231-9.768-31.317-33.631-30.097-47.964C62.384,308.113,86,342.07,112,360.067V333
				h41v41.137c25,7.948,51.087,5.515,51.087,5.515c1.53,0,2.913-0.031,2.913-0.075V338z"/>
			<path fill="#F9D940" d="M71.072,257.185c-2.096-4.615-4.064-9.005-3.747-12.751C61.893,308.113,86,342.07,112,360.067v-17.072
				C83,317.23,72.396,277.934,71.072,257.185z"/>
			<path fill="#F9D940" d="M158,361.523V322h-29.874l-13.022,11H153v41.137c25,7.948,51.087,5.515,51.087,5.515
				c1.53,0,2.913-0.031,2.913-0.075v-11.713C185,368.003,169,365.663,158,361.523z"/>
			<path fill="#F9D940" d="M241,362.174v-25.808l-26.728-1.628L204.186,338H241v37.682c15-3.202,19-8.18,36-14.446v-17.884
				C260,352.963,256,358.722,241,362.174z"/>
			<path fill="#F9D940" d="M318.762,217.226c0.896,3.589-1.299,8.861-3.251,14.289c-0.634,39.384-9.504,67.337-21.1,87.198
				l-8.285-2.232L274.18,318H307v14.226C335,284.288,318.762,217.232,318.762,217.226z"/>
		</g>
		<g>
			<polygon fill="#2A2B2A" points="196.92,204.857 177.817,290.61 229.638,288.959 			"/>
			<polygon fill="#F9D940" points="202.022,214.57 196.92,203.147 177.817,289.755 229.638,285.113 227.246,276 187.476,276 			"/>
		</g>
	</g>
	<g>
		<path fill="#FFF100" d="M112.767,70.846c0,0-80.919-16.312-77.921,67.962C34.846,138.808,42.333,66.769,112.767,70.846z"/>
		<path fill="#FFF100" d="M123.26,80.36c0,0,38.957-44.858,89.902-2.717C213.162,77.643,166.718,20.553,123.26,80.36z"/>
		<path fill="#FFF100" d="M235.643,76.277c0,0,58.453-2.714,74.93,62.531C310.573,138.808,286.596,83.075,235.643,76.277z"/>
		<path fill="#FFF100" d="M30.351,208.14c0,0-11.981,57.081,5.998,104.658C36.349,312.797,25.849,242.115,30.351,208.14z"/>
	</g>
</g>
</svg>
