<?xml version="1.0" encoding="utf-8"?>
<!-- Generator: Adobe Illustrator 19.1.0, SVG Export Plug-In . SVG Version: 6.00 Build 0)  -->
<!DOCTYPE svg PUBLIC "-//W3C//DTD SVG 1.1//EN" "http://www.w3.org/Graphics/SVG/1.1/DTD/svg11.dtd">
<svg version="1.1" id="Layer_1" xmlns="http://www.w3.org/2000/svg" xmlns:xlink="http://www.w3.org/1999/xlink" x="0px" y="0px"
	 viewBox="0 0 346.911 474.139" enable-background="new 0 0 346.911 474.139" xml:space="preserve">
<g>
	<path fill="#F6921E" d="M26.272,315.462c14.7,89.861,95.695,146.593,180.918,126.754c85.186-19.844,142.357-108.782,127.66-198.657
		c-7.022-42.88-20.867-132.847-71.665-127.059c-2.972-14.17-4.712-22.743-16.363-29.011c-19.141-10.309-38.001-4.202-48.055,17.387
		c-10.911-18.838-41.458-10.844-52.024,4.389c-8.86-10.974-35.466-14.676-47.571-10.44c-18.966,6.63-19.236,22.309-22.545,41.108
		c-29.22-13.842-40.523,42.548-46.338,66.054C21.636,241.057,20.411,279.615,26.272,315.462z"/>
	<g>
		<path fill="#C77816" d="M146.742,109.265c0,0-67.14,96.372,3.456,333.637C150.198,442.903,66.752,245.48,146.742,109.265z"/>
		<path fill="#C77816" d="M198.766,104.876c0,0,53.616,177.731,20.485,331.764C219.251,436.641,269.906,355.97,198.766,104.876z"/>
		<path fill="#C77816" d="M76.627,139.933c0,0-50.329,151.183-1.127,266.939C75.5,406.872,14.458,300.18,76.627,139.933z"/>
		<path fill="#C77816" d="M263.184,116.5c0,0,59.746,130.07,23.441,279.729C286.625,396.229,340.888,264.765,263.184,116.5z"/>
	</g>
	<path fill="#2A2B2A" d="M162.362,238.856c0,0-49.911,2.28-90.611-41.58l63.345,86.602L162.362,238.856z"/>
	<path fill="#F9D940" d="M133.476,271.041l-40.252-55.037c-7.223-5.038-14.485-11.181-21.473-18.728l63.345,86.602l27.266-45.022
		c0,0-3.414,0.146-9.152-0.403L133.476,271.041z"/>
	<path fill="#2A2B2A" d="M192.547,238.537c0,0,49.31-9.546,81.917-62.159l-47.721,99.844L192.547,238.537z"/>
	<path fill="#F9D940" d="M225.404,264.629l-25.529-28.126c-4.591,1.488-7.329,2.034-7.329,2.034l34.196,37.685l47.721-99.844
		c-5.684,9.175-11.882,17.008-18.235,23.743L225.404,264.629z"/>
	<path fill="#2A2B2A" d="M60.33,263.965c17.648,26.107,35.628,43.338,53.369,53.945c-0.074,8.478,1.412,23.649,11.669,34.922
		l1.788-28.095c39.25,16.478,76.49,2.566,105.214-17.178l11.781,28.268c5.792-14.699,2.694-29.044-0.01-37.009
		c26.711-21.353,43.554-45.162,43.554-45.162c0.198,3.829,0.283,7.657,0.248,11.486c-0.322,27.084-7.499,50.388-19.477,69.502
		c-1.881-10.983-6.719-17.771-6.719-17.771c1.011,6.134,0.683,18.347,0.294,27.066c-8.304,10.806-18.324,19.994-29.524,27.471
		l-4.388-17.376l-12.392,5.145l3.693,19.907c-3.875,2.007-7.843,3.859-11.924,5.477c-9.506,3.776-18.15,6.222-26.754,7.187
		l-2.147-24.659l-29.486,0.841l2.633,21.477c-1.466-0.388-2.96-0.798-4.471-1.24c-19.338-5.807-36.5-15.108-50.37-29.895
		c-1.158-6.772-1.835-15.362-0.664-24.651c0,0-5.482,5.113-6.856,15.66c-4.29-5.76-8.177-12.173-11.584-19.388
		c-6.751-14.24-11.554-29.795-14.654-45.723C62.344,279.915,62.578,267.299,60.33,263.965z"/>
	<g>
		<polygon fill="#F9D940" points="147.774,356.342 149.195,367.936 178.259,367.093 177.258,355.487 		"/>
		<path fill="#F9D940" d="M206.156,372.974c-9.392,3.718-17.921,6.136-26.425,7.126l1.02,11.65
			c8.604-0.965,17.248-3.411,26.754-7.187c4.081-1.618,8.049-3.47,11.924-5.477l-2.072-11.233
			C213.701,369.722,209.98,371.456,206.156,372.974z"/>
		<path fill="#F9D940" d="M145.935,376.573c-19.272-5.774-36.375-15.04-50.231-29.752c0.165,4.185,0.619,8.05,1.207,11.455
			c13.87,14.787,31.032,24.088,50.37,29.895c1.511,0.441,3.005,0.851,4.471,1.24l-1.417-11.601
			C148.874,377.419,147.412,377.023,145.935,376.573z"/>
		<path fill="#F9D940" d="M94.908,322.032c0,0-5.489,5.107-6.859,15.675c-4.294-5.78-8.18-12.194-11.593-19.408
			c-6.391-13.469-10.977-28.161-14.088-43.192c0.267,3.642,0.427,7.188,0.784,9.067c3.1,15.928,7.903,31.483,14.654,45.723
			c3.407,7.215,7.294,13.628,11.584,19.388c0.854-6.534,3.287-10.974,5.009-13.419C94.194,331.55,94.281,326.896,94.908,322.032z"/>
		<path fill="#F9D940" d="M267.12,323.045c-1.879-10.975-6.73-17.767-6.73-17.767c1.012,6.141,0.69,18.352,0.304,27.057
			c-8.313,10.823-18.321,20.014-29.526,27.493l-4.394-17.374l-12.389,5.131l2.097,11.269l11.646-4.818l4.388,17.376
			c11.2-7.478,21.22-16.665,29.524-27.471c0.389-8.72,0.717-20.932-0.294-27.066c0,0,4.838,6.788,6.719,17.771
			c11.979-19.114,19.156-42.418,19.477-69.502c0.035-3.829-0.05-7.658-0.248-11.486c0,0-0.436,0.605-1.181,1.621
			C285.916,281.599,278.844,304.344,267.12,323.045z"/>
	</g>
	<path fill="#F6921E" d="M213.653,241.589c0.641,3.882,3.812,6.432,7.072,5.672c3.268-0.777,5.404-4.539,4.763-8.45
		c-0.628-3.907-3.798-6.45-7.075-5.685C215.149,233.888,213.017,237.67,213.653,241.589z"/>
	<path fill="#F6921E" d="M133.809,252.172c0.641,3.911,3.815,6.446,7.074,5.679c3.276-0.765,5.41-4.533,4.778-8.432
		c-0.644-3.896-3.815-6.446-7.069-5.694C135.304,244.499,133.163,248.263,133.809,252.172z"/>
	<path fill="#8BC53F" d="M189.449,21.854c0,0-20.851,50.204-14.496,75.374l-8.394,3.293c0,0-20.879-52.471-6.573-81.141
		L189.449,21.854z"/>
	<g>
		<path fill="#FFF100" d="M218.975,94.081c0,0,34.379-11.752,40.015,30.549C258.99,124.63,254.426,92.667,218.975,94.081z"/>
		<path fill="#FFF100" d="M272.132,123.305c0,0,34.931,1.407,46.171,70.002C318.303,193.306,306.856,144.777,272.132,123.305z"/>
		<path fill="#FFF100" d="M159.931,105.313c0,0,39.303-25.249,41.33,31.466C201.261,136.779,196.662,94.177,159.931,105.313z"/>
		<path fill="#FFF100" d="M112.644,103.625c0,0-28.393-7.393-30.355,35.874C82.288,139.499,87.976,108.44,112.644,103.625z"/>
		<path fill="#FFF100" d="M53.711,152.168c0,0-29.263,51.513-22.495,114.806C31.216,266.973,34.679,199.256,53.711,152.168z"/>
	</g>
</g>
</svg>
