<?xml version="1.0" encoding="utf-8"?>
<!-- Generator: Adobe Illustrator 19.1.0, SVG Export Plug-In . SVG Version: 6.00 Build 0)  -->
<!DOCTYPE svg PUBLIC "-//W3C//DTD SVG 1.1//EN" "http://www.w3.org/Graphics/SVG/1.1/DTD/svg11.dtd">
<svg version="1.1" xmlns="http://www.w3.org/2000/svg" xmlns:xlink="http://www.w3.org/1999/xlink" x="0px" y="0px"
	 viewBox="0 0 307 432.367" enable-background="new 0 0 307 432.367" xml:space="preserve">
<g id="Layer_1">
	<g id="pumpkin">
		<path id="shape" fill="#F6921E" d="M111.056,51.844c0,0,13.121-15.528,37.548-14.16l-1.191-28.162l30.813-5.669l-2.312,41.275
			c0,0,25.69-2.993,35.33,12.33c0.263,0.412,12.658,1.391,13.768,1.632c11.336,2.533,21.763,8.165,30.125,15.057
			c54.945,45.24,46.545,137.481,45.531,194.52c-0.664,37.335-7.228,130.969-55.474,143.865c-3.516,0.937-16.68-1.402-17.809-0.723
			c-0.02,0.015-56.148,33.821-114.056,5.436c-4.332-2.12-28.508,3.67-36.416,1.868c-33.895-7.685-49.481-39.124-57.423-65.074
			C0.778,292.946,3.846,228.149,9.741,165.565C14.344,116.673,33.457,34.042,111.056,51.844z"/>
		<g id="sections">
			<path fill="#C77816" d="M113.018,51.954c0,0-79.176,164.285-0.186,365.262C112.832,417.217,14.95,260.941,113.018,51.954z"/>
			<path fill="#C77816" d="M211.404,57.467c0,0,59.629,141.242,15.008,354.286C226.413,411.753,290.682,230.548,211.404,57.467z"/>
			<path fill="#C77816" d="M177.237,45.202c0,0,48.92,209.668,2.058,383.224C179.296,428.426,239.818,225.632,177.237,45.202z"/>
			<path fill="#C77816" d="M211.404,57.467c0,0,119.824,93.958,32.771,355.006C244.175,412.474,351.974,191.026,211.404,57.467z"/>
			<path fill="#C77816" d="M99.212,50.103c0,0-124.507,143.419-10.623,370.371C88.588,420.474-46.363,238.178,99.212,50.103z"/>
		</g>
		<path id="tip" fill="#8BC53F" d="M176.221,44.089l2.312-41.275l-30.738,6.723l1.121,29.209c-0.027-0.002-0.048-0.003-0.071-0.004
			C156.311,39.161,173.064,39.495,176.221,44.089z"/>
		<g id="light">
			<path fill="#FFF100" d="M105.956,59.691c0,0-54.036-25.933-74.453,44.185C31.503,103.876,49.647,47.632,105.956,59.691z"/>
			<path fill="#FFF100" d="M125.887,51.903c0,0,28.331-23.863,62.284,12.396C188.171,64.297,156.778,35.822,125.887,51.903z"/>
			<path fill="#FFF100" d="M210.527,66.823c0,0,54.312-5.868,66.562,69.896C277.089,136.719,266.833,78.878,210.527,66.823z"/>
		</g>
	</g>
	<g id="evilFace" display="none">
		<g display="inline">
			<path fill="#F9D940" d="M155.357,191.92c0,0-18.025,31.508-18.016,52.191l42.764,3.378
				C180.105,247.49,171.997,205.662,155.357,191.92z"/>
			<path fill="#2A2B2A" d="M156.397,196c0,0-14.508,26.876-14.57,44.496l34.214,2.751C176.042,243.247,169.676,207.653,156.397,196z
				"/>
		</g>
		<g display="inline">
			<path fill="#F9D940" d="M228.762,303.054c13.134,1.509,21.318,4.868,26.437,8.392c12.811-31.746,15.627-68.707,12.339-98.107
				c-0.244-2.227-0.494-4.465-0.867-6.68c-2.367,8.208-6.129,15.661-10.991,22.366c1.522,44.355-22.626,59.49-22.626,59.49
				c2.722-12.437-2.777-24.995-7.863-33.346c-8.049,4.44-16.849,8.017-26.102,10.731l-8.522,35.013l-27.968-28.962
				c-4.468,0.223-8.946,0.272-13.421,0.129l-20.445,34.238l-10.96-38.434c-11.865-2.868-23.124-7.188-33.192-12.994
				c-4.691,11.365-5.347,23.033-5.347,23.033c-21.051-15.952-25.549-36.819-26.13-49.432c-7.359-7.807-14.316-16.745-13.943-22.751
				c-2.042,32.918,0.08,76.181,15.959,111.502c10.186-19.587,25.22-17.578,25.22-17.578c-2.182,17.862,10.365,47.434,21.317,69.163
				c2.43,1.266,4.957,2.451,7.575,3.539c6.208-10.349,16.19-25.702,28.482-39.93c0,0-0.032,26.903,15.807,48.691
				c6.735,0.148,13.104-0.207,19.149-1.019c14.148-21.955,17.625-53.597,17.625-53.597l19.731,40.912
				c5.789-3.442,11.088-7.434,15.92-11.917C237.284,330.732,228.762,303.054,228.762,303.054z"/>
			<path fill="#2A2B2A" d="M260.501,221.447l-4.801,7.67c1.092,43.496-27.644,63.4-27.644,63.4
				c0.234-1.066,1.739-22.454-7.273-31.212c-7,3.394-14.608,6.168-22.6,8.326l-7.615,31.283l-2.204-1.432l-26.568-24.465
				c-5.135,0.195-7.532,0.199-12.662,0.028l-16.34,24.469l-4.057,6.806l-10.028-35.166c-10.936-2.466-21.337-6.09-30.656-10.918
				c-4.359,9.517-4.818,20.688-4.818,20.688c-18.594-14.085-28.774-28.695-29.743-52.704l-8.594-9.41l-0.007-0.005
				c-1.684,26.954,0.441,62.186,14.689,91.499c3.804-4.795,7.843-7.474,11.343-8.937c7.039-4.369,13.393,0.409,13.393,0.409
				c-1.954,14.975,10.065,35.866,20.527,54.171c2.306,1.071,4.696,2.08,7.176,3.002c5.791-8.632,17.128-23.463,28.646-35.326
				c0,0-1.87,24.572,13.203,42.942c6.357,0.163,12.377-0.09,18.073-0.737c13.22-18.337,17.32-46.866,17.32-46.866l17.862,36.446
				c5.449-2.86,10.431-6.184,14.955-9.901c10.563-20.732,2.358-43.004,2.358-43.004c9.782,1.062,24.041,5.298,25.169,5.803
				C261.362,281.834,263.766,246.017,260.501,221.447z"/>
		</g>
		<g display="inline">
			<g>
				<path fill="#F9D940" d="M210.721,168.063c4.152,10.844,9.586,20.441,13.905,27.236c20.215-16.333,8.249-69.501-1.456-83.673
					c0,0-42.628,61.204-42.925,61.635c-2.283,3.266,13.723,19.094,16.342,21.006c3.028,2.211,6.182,4.137,9.72,5.109
					L210.721,168.063z"/>
				<path fill="#2A2B2A" d="M222.087,119.016c0,0-24.79,31.496-35.405,44.998c-2.083,2.982-3.783,5.426-4.914,7.047
					c0.767,4.074,18.665,18.82,22.008,19.643l6.722-23.516c3.992,9.049,10.453,14.966,14.577,20.648
					C244.058,174.377,231.345,130.868,222.087,119.016z"/>
			</g>
			<g>
				<polygon fill="#2A2B2A" points="167.146,120.186 174.805,149.191 240.554,74.061 				"/>
				<polygon fill="#F9D940" points="227.209,82.443 177.746,138.511 172.036,117.113 167.146,120.186 174.805,149.191 
					240.554,74.061 				"/>
			</g>
		</g>
		<g display="inline">
			<g>
				<path fill="#F9D940" d="M97.861,166.808c-3.453,10.891-8.272,20.579-12.149,27.435c-21.251-16.026-12.715-69.358-3.927-83.664
					c0,0,46.543,60.526,46.871,60.951c2.49,3.244-12.49,19.295-14.981,21.252c-2.885,2.255-5.917,4.233-9.392,5.245L97.861,166.808z
					"/>
				<path fill="#2A2B2A" d="M83.342,117.948c0,0,26.796,31.114,38.286,44.444c2.264,2.946,4.119,5.37,5.358,6.972
					c-0.505,4.083-15.371,18.547-21.992,20.742L98.615,162.7c-3.403,9.096-8.945,19.155-12.699,24.904
					C66.078,174.431,74.853,129.936,83.342,117.948z"/>
			</g>
			<g>
				<polygon fill="#2A2B2A" points="138.847,122.035 133.051,151.14 62.505,77.046 				"/>
				<polygon fill="#F9D940" points="76.385,85.218 129.429,140.5 133.755,119.042 138.847,122.035 133.051,151.14 62.505,77.046 
									"/>
			</g>
		</g>
	</g>
	<g id="happyFace">
		<g>
			<path fill="#2A2B2A" d="M190.475,116.582l9.788,47.443c0.065-0.023,0.132-0.06,0.191-0.081
				c6.933-2.466,13.699-1.243,15.106,2.713c1.413,3.973-3.068,9.176-10.001,11.642c-0.74,0.263-1.476,0.469-2.219,0.655
				l5.005,24.222l39.42-27.763L190.475,116.582z"/>
			<polygon fill="#F9D940" points="190.475,116.582 193.05,129.04 239.392,176.632 207.496,199.082 208.345,203.176 
				247.766,175.413 			"/>
			<polygon fill="#2A2B2A" points="185.069,99.104 239.09,151.019 243.896,125.871 			"/>
			<polygon fill="#F9D940" points="185.069,99.104 193.892,107.576 239.476,128.319 235.757,147.817 239.09,151.019 
				243.896,125.871 			"/>
		</g>
		<g>
			<path fill="#2A2B2A" d="M125.362,111.49l-13.122,51.698c-0.073-0.023-0.139-0.062-0.208-0.091
				c-7.507-3.051-15-2.055-16.744,2.232c-1.759,4.289,2.917,10.239,10.42,13.297c0.808,0.327,1.602,0.606,2.399,0.838l-6.705,26.383
				l-41.988-32.493L125.362,111.49z"/>
			<polygon fill="#F9D940" points="59.414,173.352 101.402,205.846 102.539,201.401 68.576,175.105 121.919,125.062 125.362,111.49 
							"/>
			<polygon fill="#2A2B2A" points="132.188,92.535 70.183,146.945 66.147,119.053 			"/>
			<polygon fill="#FFF100" points="132.188,92.535 122.062,101.418 70.887,121.974 73.994,143.584 70.183,146.945 66.147,119.053 
							"/>
		</g>
		<g>
			<path fill="#2A2B2A" d="M167.074,315.117l31.801,1.44l-1.895,41.851c15.224-2.857,18.82-8.21,34.197-14.455l2.143-47.32
				l28.453,1.288l-0.691,15.249c24.918-49.837,16.984-126.62,16.984-126.628c1.479,9.031-15.317,39.813-17.083,48.684l3.62,0.164
				l-7.59,26.487l-12.739,1.189c0,0-14.889,14.041-28.751,18.111l-0.776,18.195l-20.085-0.909l0.378-11.5
				c-6.788,1.75-41.906,3.571-46.971,4.31l-1.646,35.44l-21.333-1.061l0.288-36.874c-16.917,0.396-41.633-10.434-48.531-14.837
				c-14.011-8.944-39.322-52.223-37.458-68.016c-8.291,70.166,13.66,108.73,36.191,129.688l1.356-29.949l40.169-0.28l-2.061,47.601
				c23.034,9.848,47.458,8.259,47.458,8.259c1.438,0.065,2.479,0.078,2.481,0.03L167.074,315.117z"/>
			<path fill="#F9D940" d="M42.914,223.162c-1.737-5.192-3.584-15.311-4.2-18.27c-8.291,70.166,14.334,109.762,36.865,130.721
				l0.855-18.874C50.945,287.043,43.119,246.157,42.914,223.162z"/>
			<path fill="#F9D940" d="M119.023,339.193l1.995-44.065l-27.097-1.227L81.12,305.854l34.985,1.63l-1.06,45.503
				c23.034,9.848,47.458,8.259,47.458,8.259c1.438,0.065,2.479,0.078,2.481,0.03l0.586-12.949
				C145.478,347.568,130.532,344.301,119.023,339.193z"/>
			<path fill="#F9D940" d="M197.655,343.475l2.292-28.532l-25.884-3.026l-9.497,3.086l34.308,1.554l-1.895,41.851
				c15.224-2.857,25.366-7,34.197-14.455l0.895-19.77C220.729,335.162,212.891,340.341,197.655,343.475z"/>
			<path fill="#F9D940" d="M278.066,186.543c0,0-2.293,9.539-3.678,15.752c-0.006,0.026-0.009,0.052-0.011,0.079
				c-2.554,42.984-11.036,73.279-22.724,94.68c-0.22,0.403-0.654,0.639-1.112,0.612h0c-1.482-0.087-1.743,2.079-0.282,2.347
				l10.497,1.921c0.582,0.107,0.604,1.809,0.577,2.4l-1.026,8.045c-0.061,1.348,2.822,1.708,3.274,0.437
				C285.868,250.255,278.066,186.55,278.066,186.543z"/>
		</g>
		<g>
			<polygon fill="#2A2B2A" points="159.301,178.551 130.251,249.263 180.852,252.935 			"/>
			<polygon fill="#F9D940" points="162.818,189.065 159.301,178.551 130.216,249.503 180.852,252.935 179.635,245.005 
				141.196,239.46 			"/>
		</g>
	</g>
</g>
<g id="Layer_2">
	<g>
		<path fill="#F6921E" d="M-157.662-56.033c0,0-34.321-11.02-44.134,11.17c0,0-53.687-4.394-23.042,136.264
			c0,0,24.086,57.788,69.65,48.326c0,0,40.932,11.199,62.325-5.131c0,0,57.411,21.536,75.947-71.303
			c0,0,16.842-119.692-58.879-117.905c0,0-18.25-17.422-40.127-8.851c0,0-1.356-21.486-8.883-25.802l-15.686,2.192
			c0,0,1.786,17.86-3.828,23.006C-144.318-64.068-156.026-61.526-157.662-56.033z"/>
		<path fill="#8BC53F" d="M-115.922-63.463c0,0-1.356-21.486-8.883-25.802l-15.686,2.192c0,0,1.786,17.86-3.828,23.006
			C-144.318-64.068-128.5-71.336-115.922-63.463z"/>
		<g>
			<g>
				<path fill="#C77816" d="M-201.797-44.864c0,0-32.38,96.9,20.122,182.937C-181.675,138.073-242.606,56.839-201.797-44.864z"/>
				<path fill="#C77816" d="M-157.662-56.033c0,0-51.002,35.976,2.474,195.759C-155.188,139.726-216.874,2.549-157.662-56.033z"/>
				<path fill="#C77816" d="M-75.794-54.612c0,0,54.4,124.195-17.069,189.207C-92.863,134.595-12.791,85.323-75.794-54.612z"/>
				<path fill="#C77816" d="M-115.922-63.463c0,0,48.945,74.393,14.072,201.08C-101.849,137.617-55.02,30.854-115.922-63.463z"/>
				<path fill="#C77816" d="M-60.92-52.841c0,0,63.414,99.101-5.813,187.474C-66.733,134.633,10.347,64.086-60.92-52.841z"/>
			</g>
			<path fill="#2A2B2A" d="M-91.234-19.092l-17.136,32.81c0,0,26.62-0.095,30.981,6.767C-77.389,20.486-86.874-12.225-91.234-19.092
				z"/>
			<path fill="#F9D940" d="M-107.298,11.345l-1.061,2.47c0,0,26.742,0.209,31.207,8.466c0,0-0.535-4.091-1.393-7.391
				C-85.526,10.523-100.955,11.559-107.298,11.345z"/>
			<path fill="#F9D940" d="M-77.389,20.486c0,0-9.485-32.711-13.846-39.577l-17.136,32.81l1.081-2.077
				c0.691,0.011,1.505,0.032,2.383,0.061l13.068-25.025c2.669,4.195,7.245,18.05,10.406,28.189c0.999,0.337,1.916,0.707,2.711,1.123
				C-77.9,18.742-77.389,20.486-77.389,20.486z"/>
			<path fill="#2A2B2A" d="M-158.321-13.103l-15.525,34.974c0,0,23.129-5.527,34.929-2.399
				C-138.917,19.472-155.248-9.999-158.321-13.103z"/>
			<path fill="#F9D940" d="M-172.44,18.712l-1.406,3.159c0,0,23.129-5.527,34.929-2.399c0,0-0.599-1.087-1.59-2.849
				C-150.835,14.944-166.543,17.58-172.44,18.712z"/>
			<path fill="#F9D940" d="M-158.321-13.103l-14.119,31.815c0.49-0.093,1.071-0.202,1.687-0.311l12.823-26.419
				c2.061,2.079,10.731,15.716,16.22,24.484c0.402,0.045,0.815,0.093,1.203,0.157c0.99,1.763,1.59,2.849,1.59,2.849
				S-155.248-9.999-158.321-13.103z"/>
		</g>
		<g>
			<path d="M-151.112,16.107c1.407,3.981,0.147,7.929-2.811,8.826c-2.956,0.893-6.502-1.611-7.906-5.59
				c-1.404-3.977-0.147-7.927,2.815-8.822C-156.058,9.627-152.521,12.128-151.112,16.107z"/>
			<path d="M-85.633,14.823c-1.019,4.102-4.295,6.948-7.325,6.358c-3.034-0.587-4.663-4.396-3.644-8.498
				c1.017-4.103,4.297-6.948,7.331-6.358C-86.24,6.915-84.612,10.717-85.633,14.823z"/>
		</g>
		<g>
			<polygon fill="#2A2B2A" points="-124.367,22.144 -137.964,46.971 -105.892,43.148 			"/>
			<polygon fill="#F9D940" points="-135.85,43.107 -137.964,46.971 -105.892,43.148 -108.766,39.878 			"/>
			<polygon fill="#F9D940" points="-124.367,22.144 -137.964,46.971 -135.85,43.107 -132.338,42.693 -124.028,27.517 
				-112.737,40.352 -108.766,39.878 			"/>
		</g>
		<g>
			<path fill="#2A2B2A" d="M-63.359,109.451c0,0-14.9-8.806-25.671-11.836l4.196-5.617l-11.209-4.395l-4.963,6.426
				c0,0-14.727-2.918-27.298,0.387l-2.182-7.206l-9.795,3.619l0.129,4.514c0,0-9.103-0.135-24.247,9.921
				c0,0-0.684-9.995,5.101-15.265l4.803,1.824l4.637-3.862l-4.799-1.828c0,0,14.353-10.228,35.656-12.604l0.565,6.073l13.858,0.193
				l0.634-5.518c0,0,19.472,2.783,32.514,15.964l-5.898,1.346l3.69,4.607l6.312-0.769C-67.323,95.425-62.714,104.326-63.359,109.451
				z"/>
			<path fill="#F9D940" d="M-164.399,105.263c0.091-0.062,0.182-0.119,0.28-0.183c0.482-3.046,1.919-8.979,6.075-12.763l3.6,1.272
				l7.23-5.766l-3.887-1.793c0,0,8.474-8.294,29.776-10.668l0.569,6.073l18.604,0.058l0.648-4.929c0,0,10.992,0.538,27.079,13.194
				l-5.293,1.306l4.931,6.343l6.311-0.77c0,0,4.496,7.318,5.139,12.57c0.474-5.158-3.987-13.781-3.987-13.781l-6.312,0.769
				l-3.69-4.607l5.898-1.346c-13.042-13.181-32.514-15.964-32.514-15.964l-0.634,5.518l-13.859-0.196L-119,73.527
				c-21.303,2.375-35.656,12.604-35.656,12.604l4.799,1.828l-4.637,3.862l-4.803-1.824
				C-165.082,95.268-164.399,105.263-164.399,105.263z"/>
			<path fill="#F9D940" d="M-164.399,105.263c15.144-10.055,24.247-9.921,24.247-9.921l-0.129-4.514l9.795-3.619l2.182,7.206
				c12.572-3.305,27.298-0.387,27.298-0.387l4.963-6.426l11.209,4.395l-4.196,5.617c10.771,3.03,25.671,11.836,25.671,11.836
				c0.089-0.715,0.075-1.506-0.014-2.332c-4.467-2.569-14.432-7.997-22.702-10.362l4.289-5.839l-15.064-5.646l-5.076,6.675
				c0,0-11.515-3.141-24.382,0.289l-2.238-7.49l-13.563,4.446l0.133,4.691c0,0-6.945-0.213-22.444,10.232
				c0,0-0.001-0.032-0.006-0.081C-164.43,104.804-164.399,105.263-164.399,105.263z"/>
		</g>
		<g>
			<path fill="#FFF100" d="M-116.372-60.37c0,0,33.67-10.494,44.806,19.997C-71.567-40.373-83.153-64.754-116.372-60.37z"/>
			<path fill="#FFF100" d="M-67.143-49.782c0,0,35.417,3.847,42.266,46.025C-24.877-3.757-37.324-41.775-67.143-49.782z"/>
			<path fill="#FFF100" d="M-134.673-58.452c0,0-23.242-9.946-24.469,23.61C-159.143-34.842-155.717-60.173-134.673-58.452z"/>
			<path fill="#FFF100" d="M-167.939-54.829c0,0-34.081-9.262-33.066,33.283C-201.005-21.546-197.32-56.021-167.939-54.829z"/>
			<path fill="#FFF100" d="M-208.092-40.883c0,0-25.809,2.39-22.383,69.884C-230.475,29.001-230.822-29.557-208.092-40.883z"/>
		</g>
	</g>
	<g>
		<path fill="#F6921E" d="M330.686,417.589c-0.703,56.448,50.514,102.842,114.4,103.648c63.861,0.798,116.223-44.314,116.93-100.771
			c0.33-26.938,1.663-83.321-35.658-87.446c-0.36-8.999-0.536-14.435-8.142-19.966c-12.493-9.094-26.847-8.236-36.803,3.288
			c-5.492-13.008-28.503-12.763-38.029-5.153c-5.003-7.953-23.705-14.178-32.957-13.437c-14.496,1.158-16.661,10.581-21.407,21.433
			c-19.31-12.738-34.539,19.606-41.682,32.923C336.697,371.98,330.969,395.071,330.686,417.589z"/>
		<g>
			<path fill="#C77816" d="M443.384,311.189c0,0-60.478,48.104-39.44,201.915C403.945,513.103,368.642,381.416,443.384,311.189z"/>
			<path fill="#C77816" d="M481.413,316.342c0,0,16.288,115.327-26.938,203.338C454.476,519.68,501.106,478.581,481.413,316.342z"/>
			<path fill="#C77816" d="M389.02,319.185c0,0-55.256,83.711-34.359,160.966C354.661,480.15,324.096,406.592,389.02,319.185z"/>
			<path fill="#C77816" d="M526.358,333.02c0,0,26.693,87.476-18.268,172.371C508.09,505.391,563.702,434.173,526.358,333.02z"/>
		</g>
		<path fill="#2A2B2A" d="M438.351,391.757c0,0-36.241-6.11-60.049-38.689l34.749,61.777L438.351,391.757z"/>
		<path fill="#F9D940" d="M413.497,406.853l-22.08-39.26c-4.57-4.124-9.029-8.922-13.115-14.526l34.749,61.777l25.3-23.088
			c0,0-2.478-0.424-6.542-1.616L413.497,406.853z"/>
		<path fill="#2A2B2A" d="M460.135,396.092c0,0,36.722,1.633,66.823-25.236l-46.925,53.112L460.135,396.092z"/>
		<path fill="#F9D940" d="M480.526,416.77l-14.856-20.806c-3.494,0.21-5.535,0.129-5.535,0.129l19.898,27.877l46.925-53.112
			c-5.248,4.686-10.697,8.485-16.12,11.597L480.526,416.77z"/>
		<path fill="#2A2B2A" d="M361.693,391.611c9.432,18.406,20.219,31.504,31.667,40.568c-1.119,5.106-1.955,14.487,4.017,22.83
			l4.819-16.691c26.204,15.834,54.78,13.021,77.953,5.411l4.935,18.83c6.02-8.004,5.591-17.128,4.644-22.342
			c21.926-8.883,37.051-20.729,37.051-20.729c-0.338,2.341-0.759,4.665-1.265,6.971c-3.636,16.301-11.734,29.292-22.766,39.033
			c0.025-6.912-2.607-11.735-2.607-11.735c-0.043,3.854-1.814,11.177-3.19,16.382c-7.34,5.278-15.713,9.321-24.721,12.155
			l-0.977-11.147l-9.574,1.247l0.158,12.571c-3.044,0.63-6.135,1.153-9.278,1.518c-7.323,0.853-13.857,1.033-20.176,0.326
			l1.552-15.207l-21.347-3.914l-0.802,13.359c-1.008-0.454-2.032-0.926-3.065-1.419c-13.201-6.405-24.395-14.594-32.529-25.6
			c0.017-4.262,0.609-9.548,2.62-14.98c0,0-4.592,2.264-6.907,8.425c-2.367-4.12-4.36-8.575-5.908-13.441
			c-3.074-9.608-4.579-19.718-4.81-29.798C361.139,401.541,362.893,393.961,361.693,391.611z"/>
		<g>
			<polygon fill="#F9D940" points="413.077,460.488 412.644,467.7 433.686,471.55 434.424,464.395 			"/>
			<path fill="#F9D940" d="M453.044,479.285c-7.233,0.836-13.681,1.016-19.932,0.339l-0.729,7.186
				c6.32,0.708,12.854,0.528,20.176-0.326c3.143-0.364,6.234-0.887,9.278-1.518l-0.081-7.091
				C458.888,478.453,455.989,478.941,453.044,479.285z"/>
			<path fill="#F9D940" d="M409.209,472.425c-13.158-6.376-24.314-14.534-32.447-25.493c-0.407,2.551-0.566,4.952-0.57,7.096
				c8.133,11.006,19.328,19.195,32.529,25.6c1.033,0.493,2.058,0.965,3.065,1.419l0.437-7.215
				C411.22,473.377,410.217,472.918,409.209,472.425z"/>
			<path fill="#F9D940" d="M379.305,431.849c0,0-4.596,2.259-6.911,8.433c-2.367-4.133-4.36-8.588-5.912-13.454
				c-2.911-9.089-4.369-18.646-4.72-28.185c-0.266,2.238-0.596,4.403-0.575,5.591c0.232,10.08,1.737,20.19,4.81,29.798
				c1.548,4.866,3.542,9.321,5.908,13.441c1.436-3.816,3.747-6.131,5.295-7.349C377.594,437.487,378.242,434.691,379.305,431.849z"
				/>
			<path fill="#F9D940" d="M503.236,458.289c0.026-6.907-2.615-11.734-2.615-11.734c-0.043,3.859-1.809,11.182-3.181,16.378
				c-7.348,5.286-15.713,9.333-24.725,12.167l-0.982-11.147l-9.57,1.239l0.094,7.117l8.995-1.162l0.977,11.147
				c9.008-2.834,17.381-6.877,24.721-12.155c1.376-5.205,3.147-12.528,3.19-16.382c0,0,2.632,4.823,2.607,11.735
				c11.031-9.741,19.13-22.732,22.766-39.033c0.506-2.306,0.926-4.63,1.265-6.971c0,0-0.39,0.3-1.055,0.802
				C521.985,436.089,514.032,448.758,503.236,458.289z"/>
		</g>
		<path fill="#F6921E" d="M474.957,401.1c-0.026,2.439,1.938,4.454,4.382,4.485c2.452,0.021,4.463-1.93,4.493-4.386
			c0.039-2.452-1.925-4.463-4.382-4.493C477.002,396.675,474.991,398.639,474.957,401.1z"/>
		<path fill="#F6921E" d="M416.108,395.513c-0.03,2.457,1.938,4.463,4.382,4.489c2.456,0.03,4.467-1.925,4.501-4.373
			c0.026-2.448-1.938-4.463-4.377-4.497C418.149,391.106,416.134,393.056,416.108,395.513z"/>
		<path fill="#8BC53F" d="M485.135,264.829c0,0-21.33,27.178-19.915,43.324l-6.461,0.729c0,0-8.447-34.805,5.462-49.965
			L485.135,264.829z"/>
		<g>
			<path fill="#FFF100" d="M497.328,312.857c0,0,26.243-1.938,24.987,24.442C522.315,337.299,523.044,317.32,497.328,312.857z"/>
			<path fill="#FFF100" d="M531.949,338.47c0,0,24.987,6.088,24.464,49.18C556.413,387.65,554.265,356.639,531.949,338.47z"/>
			<path fill="#FFF100" d="M453.382,310.781c0,0,31.487-9.346,25.819,25.193C479.201,335.974,481.242,309.568,453.382,310.781z"/>
			<path fill="#FFF100" d="M419.529,302.67c0,0-19.525-8.721-26.376,17.102C393.153,319.772,401.154,301.877,419.529,302.67z"/>
			<path fill="#FFF100" d="M370.974,323.133c0,0-27.555,26.706-30.633,65.927C340.341,389.061,351.347,348.703,370.974,323.133z"/>
		</g>
	</g>
	<g>
		<path fill="#F6921E" d="M83.572,338.151c-6.914,63.8-67.266,110.009-134.797,103.205
			c-67.524-6.794-116.671-64.026-109.759-127.832c3.303-30.437,9.542-94.247,49.485-94.407c1.604-10.111,2.529-16.213,11.304-21.54
			c14.425-8.765,29.46-6.06,38.407,8.13c7.563-14.012,31.808-10.963,40.83-1.223c6.361-8.365,26.948-13.146,36.61-11.198
			c15.148,3.049,16.148,13.95,19.695,26.786c22.102-12.064,33.798,26.273,39.525,42.176
			C83.416,285.953,86.326,312.706,83.572,338.151z"/>
		<g>
			<path fill="#C77816" d="M-20.958,204.485c0,0,57.319,61.584,14.254,232.645C-6.704,437.131,48.416,292.757-20.958,204.485z"/>
			<path fill="#C77816" d="M-61.788,205.708c0,0-32.844,128.217,0.854,232.763C-60.934,438.471-104.576,386.462-61.788,205.708z"/>
			<path fill="#C77816" d="M35.347,220.073c0,0,46.973,101.135,14.433,185.816C49.78,405.889,92.022,326.539,35.347,220.073z"/>
			<path fill="#C77816" d="M-111.499,219.118c0,0-40.026,95.512-4.082,196.76C-115.581,415.878-164.622,328.797-111.499,219.118z"/>
		</g>
		<g>
			<path fill="#2A2B2A" d="M47.086,286.913l-25.944-53.689l-44.914,70.609l21.415-2.926c0.08-5.599,0.292-12.68,3.294-17.494
				c2.185-3.481,6.284-2.794,9.791-0.428c4.145,2.809,6.237,7.97,7.269,12.355L47.086,286.913z"/>
			<path fill="#F9D940" d="M-23.771,303.832l21.415-2.926c0.028-1.186,0.056-2.47,0.118-3.759l-18.928,2.565L-23.771,303.832z
				 M2.967,279.385c-0.659,1.063-1.183,2.259-1.6,3.505c2.254-2.832,6.062-2.122,9.361,0.094c4.145,2.809,6.237,7.97,7.269,12.355
				l29.089-8.427l-1.466-3.016l-25.591,7.406c-1.052-4.38-3.145-9.546-7.288-12.341C9.239,276.6,5.146,275.889,2.967,279.385z"/>
			<polygon fill="#F9D940" points="21.143,233.223 24.5,240.173 -15.267,302.67 -23.771,303.832 			"/>
			<path fill="#2A2B2A" d="M-48.21,308.386l-68.388-60.728l-12.055,61.321l34.347-0.127c0,0-0.021-18.787,10.219-16.599
				c0,0,8.801-0.325,10.831,15.931L-48.21,308.386z"/>
			<path fill="#F9D940" d="M-51.87,305.131l-21.93-0.184c0.219,0.997,0.405,2.065,0.546,3.237l25.045,0.202L-51.87,305.131z
				 M-128.652,308.98l34.347-0.127c0,0-0.021-18.787,10.219-16.599c0,0,2-0.07,4.329,1.633c-3.247-5.03-7.321-4.894-7.321-4.894
				c-10.245-2.183-10.21,16.614-10.21,16.614l-30.722,0.113L-128.652,308.98z"/>
			<polygon fill="#F9D940" points="-116.597,247.658 -48.21,308.386 -57.601,308.302 -117.98,254.698 			"/>
			<polygon fill="#2A2B2A" points="-33.031,304.783 -10.226,329.305 -48.628,330.853 			"/>
			<polygon fill="#F9D940" points="-32.685,309.167 -45.593,330.726 -48.628,330.853 -33.031,304.783 -10.226,329.305 
				-13.794,329.451 			"/>
			<polygon fill="#2A2B2A" points="64.86,317.782 21.856,351.019 2.624,330.077 -12.242,353.927 -33.135,336.64 -47.589,356.11 
				-64.665,337.694 -79.199,360.796 -117.797,336.777 -69.335,406.256 -56.055,382.068 -39.136,403.405 -24.609,379.922 
				-4.062,397.928 9.776,375.56 29.144,393.585 			"/>
			<polygon fill="#F9D940" points="-70.032,397.528 -56.747,373.335 -39.842,394.663 -25.305,371.194 -4.756,389.191 9.075,366.823 
				28.459,384.858 49.524,350.341 29.144,393.585 9.776,375.56 -4.062,397.928 -24.609,379.922 -39.136,403.405 -56.055,382.068 
				-69.335,406.256 -95.14,369.26 			"/>
			<polygon fill="#F9D940" points="22.554,359.752 3.327,338.814 -11.548,362.659 -32.445,345.387 -46.888,364.847 -63.972,346.436 
				-78.505,369.538 -107.566,351.452 -117.797,336.777 -79.199,360.796 -64.665,337.694 -47.589,356.11 -33.135,336.64 
				-12.242,353.927 2.624,330.077 21.856,351.019 64.86,317.782 57.993,332.364 			"/>
		</g>
		<path fill="#8BC53F" d="M-58.735,147.126c0,0,18.83,33.246,15.146,51.304l6.726,1.595c0,0,13.635-38.257,1.007-57.053
			L-58.735,147.126z"/>
		<g>
			<path fill="#FFF100" d="M-78.119,199.86c0,0-27.432-5.349-29.689,24.57C-107.808,224.43-105.87,201.804-78.119,199.86z"/>
			<path fill="#FFF100" d="M-118.129,224.599c0,0-27.207,3.872-32.498,52.569C-150.626,277.169-144.155,242.418-118.129,224.599z"/>
			<path fill="#FFF100" d="M-31.448,202.815c0,0-31.971-14.35-30.662,25.328C-62.11,228.142-60.687,198.096-31.448,202.815z"/>
			<path fill="#FFF100" d="M5.374,197.748c0,0,21.791-7.486,25.525,22.476C30.898,220.224,24.883,199.07,5.374,197.748z"/>
			<path fill="#FFF100" d="M53.857,226.683c0,0,25.463,33.477,23.398,78.108C77.255,304.792,71.106,257.92,53.857,226.683z"/>
		</g>
	</g>
</g>
</svg>
